Coordinates
version=1
nRows=9
nColumns=24
inDegrees=yes

Units are S.I. units (second, meters, Newtons, ...)
Angles are in degrees.

endheader
time	pelvis_tilt	pelvis_list	pelvis_rotation	pelvis_tx	pelvis_ty	pelvis_tz	hip_flexion_r	hip_adduction_r	hip_rotation_r	knee_angle_r	ankle_angle_r	subtalar_angle_r	mtp_angle_r	hip_flexion_l	hip_adduction_l	hip_rotation_l	knee_angle_l	ankle_angle_l	subtalar_angle_l	mtp_angle_l	lumbar_extension	lumbar_bending	lumbar_rotation
      0.72416667	      1.49845491	     -6.89453133	      3.74004529	     -0.40257989	      1.00879742	      0.31202503	      8.46618725	     12.39316733	     -0.56095116	    -14.09827273	      0.37547660	    -18.30172803	     -0.92044856	     19.10680968	     -7.36983405	      2.54326082	    -69.64178864	     -9.45566013	    -11.25222348	      5.16522030	     -5.61161519	     10.51152211	      1.90576698
      0.72833333	      1.48290609	     -6.79406215	      3.70222887	     -0.39736511	      1.00961283	      0.31223236	      7.92971887	     12.31782388	     -0.48912527	    -13.72045918	      0.49195048	    -18.22909362	     -0.92504224	     19.70110837	     -7.18254945	      2.59791016	    -69.41169526	     -8.92109923	    -11.49823599	      5.15040198	     -5.61088778	     10.39839574	      1.95733235
      0.73250000	      1.51563483	     -6.69232634	      3.63976552	     -0.39217980	      1.01046311	      0.31248199	      7.34371640	     12.24602426	     -0.39040942	    -13.34535153	      0.56400864	    -18.09469165	     -0.93929457	     20.21741967	     -7.01645331	      2.60712174	    -69.11630389	     -8.34173153	    -11.73501423	      5.11013398	     -5.71046043	     10.25236573	      2.07261893
      0.73666667	      1.52384974	     -6.56913639	      3.56902279	     -0.38695768	      1.01129406	      0.31270479	      6.77883819	     12.14501812	     -0.29076741	    -12.97189302	      0.66619196	    -17.97471795	     -0.94979743	     20.72094635	     -6.82003501	      2.60910368	    -68.72668243	     -7.78574998	    -11.94377208	      5.07982452	     -5.74722972	     10.12254845	      2.17726007
      0.74083333	      1.59489892	     -6.43418609	      3.49557824	     -0.38174141	      1.01218104	      0.31294554	      6.13780094	     12.03368703	     -0.18586416	    -12.58149054	      0.77694791	    -17.76243471	     -0.97947720	     21.12847066	     -6.62849966	      2.58682901	    -68.25972567	     -7.25742614	    -12.09488239	      4.99553668	     -5.88262131	      9.94336777	      2.40359710
      0.74500000	      1.56801808	     -6.31813149	      3.40233537	     -0.37655198	      1.01287242	      0.31318383	      5.62967374	     11.93478647	     -0.07277072	    -12.24399992	      0.88536980	    -17.64355357	     -0.99127463	     21.63127490	     -6.44758526	      2.56311432	    -67.74987590	     -6.68829475	    -12.28439741	      4.96243443	     -5.89652452	      9.79968713	      2.48870351
      0.74916667	      1.60307911	     -6.19083216	      3.30426949	     -0.37133071	      1.01362848	      0.31342915	      5.03688301	     11.82487759	      0.04166881	    -11.87515183	      1.00918374	    -17.42559909	     -1.02652904	     22.03038770	     -6.27380090	      2.51114246	    -67.15516358	     -6.14240965	    -12.37729849	      4.86713514	     -5.97565142	      9.64173709	      2.72358598
      0.75333333	      1.61173139	     -6.05983399	      3.18782139	     -0.36613211	      1.01431073	      0.31367169	      4.48700875	     11.70582335	      0.16809611	    -11.53635770	      1.13204499	    -17.23073358	     -1.06985159	     22.43302677	     -6.09525622	      2.44535850	    -66.49735152	     -5.58316549	    -12.49675856	      4.75368170	     -6.03266268	      9.48516293	      2.91267392
      0.75750000	      1.61363103	     -5.92633785	      3.06352090	     -0.36093784	      1.01494359	      0.31392032	      3.94901662	     11.58151283	      0.29476912	    -11.20592674	      1.25401549	    -17.03959968	     -1.11376755	     22.81969294	     -5.92028705	      2.36568023	    -65.77551713	     -5.03750106	    -12.59293777	      4.63889270	     -6.08562420	      9.32589374	      3.08214564
